<?xml version="1.0" standalone="no"?>
<!DOCTYPE svg PUBLIC "-//W3C//DTD SVG 20010904//EN"
 "http://www.w3.org/TR/2001/REC-SVG-20010904/DTD/svg10.dtd">
<svg version="1.0" xmlns="http://www.w3.org/2000/svg"
 width="2755.000000pt" height="2755.000000pt" viewBox="0 0 2755.000000 2755.000000"
 preserveAspectRatio="xMidYMid meet">
<metadata>
Created by potrace 1.11, written by Peter Selinger 2001-2013
</metadata>
<g transform="translate(0.000000,2755.000000) scale(0.100000,-0.100000)"
fill="#000000" stroke="none">
<path d="M18107 23104 c-1 -1 -105 -4 -232 -8 -126 -4 -259 -8 -295 -10 -127
-8 -259 -17 -297 -20 -21 -3 -76 -7 -122 -11 -47 -4 -92 -8 -100 -10 -9 -1
-50 -6 -92 -9 -42 -4 -87 -8 -100 -11 -38 -5 -109 -14 -169 -20 -30 -3 -66 -8
-80 -10 -14 -3 -89 -14 -165 -25 -123 -18 -266 -41 -345 -56 -14 -2 -41 -7
-60 -10 -149 -23 -597 -119 -750 -160 -394 -106 -1040 -376 -1505 -629 -38
-21 -90 -49 -115 -63 -25 -13 -49 -27 -55 -32 -5 -4 -35 -21 -65 -37 -73 -40
-204 -118 -257 -151 -23 -15 -63 -40 -90 -56 -84 -51 -274 -177 -413 -275
-120 -84 -397 -287 -410 -301 -3 -3 -50 -41 -105 -84 -312 -248 -558 -469
-870 -781 -254 -254 -309 -312 -494 -525 -79 -91 -153 -176 -165 -190 -89
-100 -435 -551 -561 -730 -54 -77 -311 -464 -364 -548 l-43 -69 -81 121 c-103
154 -383 544 -407 566 -3 3 -34 43 -70 90 -35 47 -70 92 -77 100 -40 50 -87
108 -101 125 -10 11 -35 42 -57 70 -22 27 -52 63 -66 80 -15 16 -61 71 -103
120 -43 50 -92 106 -109 125 -366 408 -652 691 -1043 1029 -108 93 -407 326
-514 400 -97 67 -330 221 -334 221 -2 0 -44 24 -93 53 -106 64 -186 111 -193
113 -3 0 -79 37 -170 82 -192 93 -322 147 -510 209 -118 39 -292 86 -370 100
-14 2 -43 8 -65 13 -22 5 -62 12 -90 15 -27 4 -57 8 -65 10 -108 27 -824 27
-1165 0 -188 -15 -205 -16 -340 -30 -27 -3 -63 -7 -80 -10 -16 -2 -55 -7 -85
-10 -30 -4 -64 -8 -75 -9 -184 -27 -425 -69 -523 -92 -37 -9 -78 -18 -92 -20
-104 -19 -512 -138 -595 -173 -11 -4 -81 -32 -155 -60 -878 -341 -1525 -955
-1855 -1761 -75 -183 -172 -509 -200 -669 -3 -19 -7 -37 -9 -40 -2 -3 -7 -31
-11 -61 -4 -30 -8 -57 -10 -60 -2 -3 -6 -30 -10 -60 -3 -30 -8 -62 -10 -70 -5
-19 -16 -119 -32 -285 -10 -116 -8 -2949 3 -3905 8 -656 9 -3216 5 -8385 -1
-940 -2 -1724 -1 -1742 l0 -32 297 4 c164 2 523 7 798 10 500 6 685 8 1595 20
958 12 1143 14 1675 20 470 5 563 8 621 19 14 2 63 34 86 55 29 28 55 103 52
154 -3 55 -40 126 -82 155 -58 41 -81 43 -498 37 -647 -8 -1068 -14 -1599 -20
-275 -3 -635 -8 -800 -10 -332 -5 -1246 -16 -1537 -19 -125 -1 -189 1 -191 8
-2 6 -2 493 -1 1081 6 2341 6 8080 1 8395 -3 184 -9 767 -13 1295 -13 1799 -9
2824 11 2889 2 6 6 43 10 81 3 39 7 81 10 95 2 14 8 57 14 95 13 85 20 123 26
151 3 12 7 36 10 55 6 37 65 261 94 357 18 61 74 207 83 216 4 6 8 16 8 23 0
17 84 190 146 299 139 247 368 525 569 690 33 27 62 51 65 54 3 3 39 31 80 61
268 200 613 374 979 495 98 33 259 82 291 89 8 2 43 10 78 19 34 9 82 21 105
25 23 5 75 16 114 25 40 9 87 18 105 21 18 3 44 8 58 10 49 10 66 13 145 25
44 7 87 13 95 15 8 1 42 6 75 10 32 4 67 8 76 10 10 2 46 6 81 10 35 3 79 8
98 10 19 3 64 7 100 10 36 3 90 7 120 10 30 2 100 7 155 10 55 3 136 8 180 10
44 3 204 6 355 6 243 1 325 -2 420 -16 160 -23 166 -24 280 -51 58 -14 112
-27 120 -29 38 -8 297 -98 376 -130 402 -165 842 -435 1279 -784 251 -201 407
-342 705 -641 229 -228 278 -279 425 -444 39 -44 75 -84 80 -90 81 -87 394
-470 515 -631 25 -33 48 -62 51 -65 3 -3 58 -79 123 -169 199 -276 368 -537
436 -671 47 -93 120 -140 219 -140 45 0 109 28 140 61 11 12 68 103 127 202
107 180 205 335 326 516 69 103 281 404 298 423 6 7 29 38 51 68 22 30 48 64
57 75 9 11 48 61 87 110 38 50 77 99 86 110 10 11 66 78 125 150 60 71 115
137 124 145 8 9 44 50 80 90 116 133 182 201 400 420 282 284 479 463 750 682
74 61 144 117 155 126 181 149 717 523 900 628 11 6 72 43 135 81 63 38 142
85 175 103 33 18 105 58 160 88 125 69 504 254 650 317 460 199 781 301 1220
385 61 12 119 23 130 26 11 2 36 7 55 10 19 3 53 9 75 14 34 7 243 43 325 55
14 2 43 6 65 10 22 3 54 7 70 10 39 5 181 24 220 30 89 12 240 29 370 40 39 3
84 8 100 10 17 2 80 7 140 10 61 4 126 8 145 11 204 23 1000 23 1332 -1 136
-9 228 -16 268 -20 25 -3 68 -7 95 -10 211 -20 314 -33 520 -65 66 -11 134
-21 150 -24 17 -4 46 -9 65 -12 19 -3 46 -8 60 -10 599 -105 1349 -331 1916
-577 234 -101 586 -276 806 -400 60 -33 320 -189 333 -199 6 -4 87 -58 180
-119 190 -125 449 -316 632 -466 171 -140 305 -259 456 -403 96 -92 296 -293
354 -356 123 -135 174 -192 243 -274 30 -35 63 -74 73 -86 118 -139 336 -430
479 -639 321 -471 615 -1019 861 -1605 131 -315 312 -847 393 -1160 2 -8 13
-51 25 -95 33 -127 107 -446 122 -525 13 -66 60 -317 62 -335 2 -11 6 -36 9
-55 3 -19 8 -44 10 -56 2 -12 7 -45 11 -75 4 -30 8 -56 10 -59 1 -3 6 -32 9
-65 4 -33 9 -67 11 -75 2 -8 7 -42 10 -75 3 -33 8 -73 10 -90 5 -32 8 -57 25
-230 21 -211 33 -373 47 -610 3 -55 7 -2165 9 -4689 2 -4245 4 -4592 19 -4632
20 -53 82 -108 136 -122 106 -27 218 32 251 133 11 33 13 828 12 4540 0 2475
-4 4581 -8 4680 -12 285 -21 425 -41 640 -3 28 -7 77 -10 110 -3 33 -12 114
-20 180 -8 66 -17 137 -20 159 -2 21 -7 55 -9 75 -3 20 -8 56 -11 81 -3 25
-15 97 -25 160 -11 63 -22 133 -25 155 -4 22 -8 49 -10 60 -132 720 -311 1355
-561 1992 -67 174 -117 290 -202 478 -180 398 -465 909 -715 1285 -69 104
-256 370 -267 380 -3 3 -25 32 -50 65 -83 111 -301 380 -375 461 -5 6 -44 49
-85 95 -133 149 -458 479 -540 549 -14 12 -47 43 -75 69 -27 26 -104 93 -170
149 -136 116 -127 109 -215 179 -36 29 -70 57 -77 63 -140 116 -567 415 -763
534 -25 15 -79 48 -120 73 -256 156 -691 381 -970 502 -80 34 -154 67 -165 71
-435 191 -1153 412 -1705 524 -196 39 -191 39 -350 65 -111 19 -153 26 -222
36 -79 11 -108 15 -188 25 -47 5 -96 12 -110 14 -14 3 -59 7 -100 11 -41 3
-88 8 -105 10 -31 5 -112 11 -255 20 -47 4 -112 8 -145 11 -91 6 -723 22 -728
18z"/>
<path d="M17977 20684 c-1 -1 -63 -4 -137 -8 -231 -12 -254 -13 -410 -31 -19
-2 -60 -7 -90 -10 -30 -3 -82 -10 -115 -15 -33 -5 -78 -12 -100 -15 -22 -4
-53 -8 -70 -11 -16 -3 -43 -7 -60 -10 -16 -2 -52 -9 -80 -14 -27 -5 -63 -12
-80 -15 -134 -22 -534 -123 -745 -188 -537 -166 -1110 -427 -1615 -735 -126
-77 -401 -260 -464 -309 -9 -7 -47 -35 -85 -63 -137 -100 -404 -318 -525 -428
-46 -43 -93 -85 -105 -95 -33 -28 -252 -246 -341 -339 -336 -349 -669 -775
-957 -1228 -94 -148 -331 -560 -321 -560 2 0 -4 -12 -15 -27 -15 -23 -133
-257 -137 -273 -1 -3 -19 -43 -41 -90 -126 -267 -291 -699 -387 -1010 -70
-225 -193 -721 -222 -890 -3 -19 -15 -84 -25 -145 -10 -60 -21 -126 -24 -145
-3 -19 -8 -46 -10 -60 -5 -28 -16 -109 -22 -155 -2 -16 -6 -48 -8 -70 -11 -91
-22 -200 -31 -310 -4 -44 -9 -100 -11 -125 -23 -279 -23 -873 1 -1175 3 -33 7
-91 10 -130 5 -75 14 -162 20 -210 2 -16 6 -57 10 -90 3 -33 8 -70 11 -83 2
-12 7 -44 9 -70 3 -26 8 -58 10 -72 2 -14 7 -45 10 -70 20 -150 99 -545 150
-750 81 -321 198 -690 322 -1010 119 -308 346 -784 508 -1065 48 -82 96 -166
107 -185 112 -194 502 -752 605 -865 10 -11 45 -54 78 -95 165 -204 515 -573
721 -760 33 -30 80 -73 105 -95 36 -34 254 -217 323 -272 96 -77 338 -253 469
-341 501 -337 1012 -597 1587 -808 80 -29 138 -54 130 -55 -28 -3 -562 9 -690
16 -30 1 -134 6 -230 10 -96 4 -195 8 -220 10 -25 1 -103 6 -175 10 -71 4
-146 8 -165 10 -19 2 -80 6 -135 10 -55 4 -122 8 -150 10 -27 3 -84 7 -125 10
-74 6 -102 8 -230 21 -69 6 -76 7 -210 19 -47 4 -93 9 -102 10 -9 2 -48 7 -85
10 -37 4 -79 8 -93 10 -14 2 -50 6 -80 10 -30 3 -89 10 -130 15 -41 6 -91 12
-110 14 -19 3 -48 7 -65 10 -16 2 -57 7 -90 11 -33 3 -67 8 -75 10 -8 2 -35 7
-60 9 -44 5 -346 52 -385 59 -11 3 -41 7 -66 11 -45 7 -70 11 -119 21 -14 3
-52 10 -85 16 -52 9 -221 42 -280 55 -11 2 -36 7 -55 10 -19 3 -60 12 -90 20
-30 7 -71 16 -90 19 -19 3 -134 31 -255 61 -121 31 -227 57 -235 59 -8 1 -42
11 -75 21 -33 10 -64 19 -70 20 -61 12 -421 144 -540 199 -16 7 -77 33 -135
58 -159 68 -240 106 -555 261 -258 128 -350 176 -555 289 -51 28 -396 227
-430 247 -892 548 -1542 1035 -2219 1665 -106 98 -504 497 -586 586 -33 36
-80 88 -105 115 -39 42 -88 98 -229 259 -14 17 -44 53 -66 80 -22 28 -42 52
-45 55 -15 13 -180 223 -291 370 -207 272 -400 555 -571 835 -105 172 -188
314 -188 321 0 2 -10 21 -23 42 -56 89 -260 487 -347 677 -195 425 -348 826
-492 1290 -147 478 -287 1111 -348 1575 -6 47 -13 96 -15 110 -2 14 -7 50 -11
80 -3 30 -7 66 -9 80 -2 14 -6 59 -10 100 -4 41 -9 82 -10 91 -2 9 -6 49 -9
90 -4 41 -9 103 -12 139 -8 100 -23 348 -29 500 -5 103 -5 744 -1 855 7 157
16 358 21 415 2 30 7 89 10 130 3 41 8 102 11 135 15 159 14 182 -12 233 -73
147 -275 156 -360 15 -17 -30 -32 -68 -33 -90 -1 -21 -4 -54 -6 -73 -2 -19 -6
-66 -9 -105 -3 -38 -8 -108 -12 -155 -36 -485 -40 -1272 -9 -1705 1 -22 6 -89
10 -150 4 -60 9 -118 10 -127 2 -9 7 -56 10 -104 4 -48 8 -96 10 -105 2 -10 6
-49 10 -86 3 -37 8 -79 10 -93 3 -14 7 -47 10 -75 6 -51 8 -68 25 -187 9 -59
33 -209 44 -278 3 -14 7 -41 10 -60 9 -58 16 -93 26 -140 5 -25 12 -61 15 -80
3 -19 8 -42 10 -50 4 -14 9 -38 20 -97 15 -81 100 -439 120 -508 8 -27 39
-138 69 -245 124 -441 294 -908 498 -1370 66 -149 281 -588 338 -690 21 -36
63 -112 95 -170 132 -239 363 -608 538 -860 92 -133 422 -578 436 -590 4 -3
54 -63 113 -135 143 -176 318 -376 498 -570 105 -113 496 -502 615 -612 167
-153 167 -154 235 -213 35 -30 68 -60 74 -65 6 -6 67 -58 136 -115 69 -58 127
-107 130 -110 3 -3 25 -21 48 -39 24 -19 53 -42 65 -52 12 -11 72 -58 132
-105 61 -47 119 -93 130 -102 54 -44 339 -252 485 -354 443 -308 958 -627
1368 -845 48 -25 105 -56 127 -68 60 -33 507 -257 610 -305 111 -53 226 -105
318 -144 17 -8 64 -27 102 -44 284 -122 480 -190 775 -270 160 -44 395 -103
464 -116 11 -3 95 -21 186 -40 91 -19 179 -38 195 -41 47 -8 232 -43 320 -59
44 -8 98 -18 120 -21 23 -3 52 -7 65 -10 13 -3 42 -7 65 -10 51 -8 86 -13 155
-25 30 -5 73 -11 95 -14 22 -3 88 -13 148 -21 59 -9 126 -18 150 -20 23 -3 92
-11 152 -19 61 -9 137 -18 170 -21 33 -3 76 -8 95 -10 19 -3 60 -7 90 -10 30
-3 71 -8 90 -10 19 -2 69 -7 110 -10 41 -4 89 -8 105 -11 17 -2 67 -6 113 -9
45 -4 91 -8 101 -10 9 -2 67 -6 127 -10 60 -4 120 -8 134 -10 14 -2 72 -7 130
-10 58 -3 130 -8 160 -10 30 -2 109 -7 175 -10 66 -4 145 -8 175 -10 54 -4
268 -13 460 -20 616 -22 1647 -23 2285 0 177 6 421 16 505 20 47 2 139 7 205
10 66 3 154 8 195 10 41 3 118 7 170 10 97 5 227 14 291 20 20 1 45 7 55 13
11 5 46 13 79 17 32 4 66 8 75 10 8 1 35 6 60 9 39 5 268 45 355 61 427 82
969 251 1405 440 154 66 484 227 590 286 72 40 135 75 190 107 135 76 399 248
575 373 163 116 465 354 551 434 6 5 42 38 80 71 110 98 123 110 244 229 479
469 862 947 1199 1495 56 91 106 172 111 180 6 8 13 22 17 30 4 8 18 33 32 55
70 113 287 545 382 762 235 538 433 1172 538 1723 16 85 32 169 35 185 4 17 9
46 12 65 3 19 9 60 14 90 5 30 12 75 15 100 3 25 8 56 10 70 2 14 6 50 10 80
3 30 8 71 10 90 9 74 14 128 20 210 4 47 8 96 10 109 26 164 26 1021 0 1291
-2 19 -6 73 -10 120 -4 47 -8 96 -10 110 -2 14 -6 50 -10 80 -13 117 -36 296
-40 310 -2 8 -7 35 -10 60 -8 60 -16 108 -21 134 -2 11 -13 73 -25 136 -11 63
-29 151 -39 195 -10 45 -21 92 -23 105 -3 14 -10 45 -17 70 -7 25 -13 52 -15
60 -8 38 -59 233 -81 308 -13 45 -36 121 -50 170 -77 265 -242 696 -391 1022
-47 102 -215 434 -254 502 -22 36 -39 69 -39 71 0 9 -202 340 -277 457 -389
596 -866 1146 -1403 1616 -543 476 -1211 906 -1830 1178 -47 21 -103 46 -125
56 -142 63 -455 179 -680 250 -220 70 -655 176 -841 206 -20 3 -46 8 -58 10
-18 4 -228 34 -336 49 -57 8 -111 13 -185 20 -38 3 -88 7 -110 10 -115 13
-756 29 -768 19z m658 -428 c28 -3 84 -8 125 -11 41 -3 86 -8 100 -10 14 -2
54 -7 90 -10 36 -4 79 -9 95 -11 17 -2 48 -6 70 -9 22 -3 49 -7 60 -9 20 -4
82 -14 140 -22 53 -8 328 -65 390 -81 33 -8 67 -16 75 -18 29 -6 145 -36 190
-49 25 -8 79 -24 120 -36 223 -66 484 -162 720 -263 196 -84 572 -271 680
-338 14 -8 77 -46 140 -84 284 -170 591 -386 860 -609 47 -39 87 -73 90 -76 3
-3 23 -20 45 -39 193 -164 504 -473 685 -681 36 -41 68 -77 71 -80 3 -3 50
-59 104 -125 207 -253 424 -559 604 -853 44 -73 81 -134 81 -137 0 -3 11 -22
24 -43 78 -120 314 -596 406 -817 34 -82 68 -163 75 -180 66 -147 232 -656
300 -920 44 -170 112 -481 121 -552 2 -19 6 -38 8 -42 3 -4 7 -29 11 -55 3
-27 7 -51 9 -55 2 -3 7 -35 11 -71 4 -36 8 -67 10 -70 2 -3 6 -30 9 -60 3 -30
8 -64 10 -75 2 -11 7 -49 11 -85 4 -36 9 -76 10 -90 4 -31 15 -149 20 -210 2
-25 7 -92 10 -150 3 -58 8 -136 10 -175 5 -81 5 -596 0 -700 -4 -102 -15 -265
-20 -305 -2 -19 -7 -71 -10 -115 -3 -44 -8 -91 -10 -105 -2 -14 -7 -50 -10
-80 -3 -30 -8 -66 -10 -80 -2 -14 -9 -61 -15 -105 -6 -44 -12 -92 -15 -108
-20 -115 -25 -146 -30 -177 -7 -46 -13 -78 -39 -195 -8 -39 -17 -82 -19 -95
-25 -131 -119 -482 -189 -705 -140 -445 -373 -992 -580 -1364 -32 -57 -58
-105 -58 -106 0 -5 -113 -194 -171 -287 -123 -198 -313 -471 -438 -632 -65
-82 -251 -309 -265 -321 -6 -5 -24 -26 -40 -45 -96 -118 -392 -417 -588 -597
-78 -72 -238 -206 -348 -293 -36 -28 -72 -56 -80 -63 -170 -140 -547 -389
-837 -553 -107 -61 -485 -254 -497 -254 -2 0 -40 -16 -83 -36 -133 -62 -388
-161 -573 -224 -192 -64 -536 -160 -660 -184 -14 -2 -59 -12 -100 -21 -85 -19
-75 -17 -230 -44 -63 -11 -137 -23 -165 -26 -27 -3 -61 -8 -75 -10 -14 -3 -47
-7 -75 -11 -27 -3 -61 -7 -75 -9 -14 -2 -61 -7 -105 -10 -44 -4 -96 -8 -115
-10 -218 -24 -840 -24 -1040 0 -19 2 -66 6 -105 10 -38 3 -86 7 -105 10 -19 2
-60 7 -90 10 -30 4 -62 8 -70 10 -8 2 -37 6 -65 10 -68 8 -287 45 -294 50 -3
1 -28 6 -54 9 -101 14 -564 137 -763 204 -191 64 -432 154 -544 205 -25 11
-65 29 -90 40 -238 106 -663 332 -822 438 -33 21 -62 39 -64 39 -9 0 -286 191
-404 278 -109 81 -322 249 -365 289 -11 10 -36 31 -55 47 -135 110 -483 451
-646 631 -239 264 -445 529 -665 855 -97 145 -80 118 -208 330 -350 584 -648
1277 -817 1905 -27 102 -93 365 -98 393 -3 15 -7 38 -11 52 -3 14 -8 39 -11
55 -2 17 -9 46 -14 65 -5 19 -12 55 -15 80 -4 24 -8 47 -10 50 -2 3 -6 23 -9
45 -3 22 -8 51 -11 65 -2 14 -7 43 -10 65 -3 22 -8 51 -10 65 -22 135 -48 359
-70 605 -26 306 -26 930 0 1260 10 114 36 350 52 465 8 63 17 124 18 135 2 11
13 76 25 145 12 69 24 139 27 155 3 17 16 80 30 140 13 61 26 121 29 135 3 14
7 33 10 42 3 9 6 25 8 35 25 122 160 584 216 738 66 181 152 402 209 535 111
264 325 681 469 915 17 28 44 73 61 101 62 106 255 388 374 547 120 160 303
387 336 417 9 8 29 31 45 50 54 66 219 241 339 358 66 64 129 126 141 138 20
20 107 99 192 174 344 306 836 647 1279 887 212 115 528 261 740 343 33 13 74
29 92 37 115 49 540 179 773 236 169 42 405 88 570 111 58 8 121 17 140 20 59
8 122 16 190 22 36 3 75 7 87 9 11 2 81 6 155 10 73 4 134 9 136 10 5 5 673
-4 727 -9z"/>
<path d="M17958 17546 c-1 -2 -46 -6 -98 -10 -88 -5 -206 -18 -275 -30 -17 -3
-50 -8 -75 -11 -36 -5 -178 -33 -305 -60 -184 -39 -514 -149 -737 -246 -76
-32 -293 -140 -363 -179 -166 -93 -302 -179 -439 -278 -81 -58 -253 -190 -282
-217 -6 -5 -42 -37 -80 -70 -210 -182 -464 -457 -643 -695 -39 -52 -75 -100
-81 -107 -23 -27 -184 -276 -226 -348 -35 -61 -174 -316 -174 -320 0 -2 -22
-48 -48 -102 -57 -116 -177 -417 -222 -558 -66 -204 -133 -468 -164 -640 -3
-16 -8 -41 -11 -55 -2 -13 -7 -42 -10 -65 -3 -22 -8 -47 -10 -55 -4 -13 -7
-36 -20 -150 -2 -14 -6 -56 -10 -95 -4 -38 -9 -77 -10 -87 -7 -33 -18 -340
-18 -468 0 -195 17 -456 38 -610 2 -14 6 -47 10 -75 26 -211 107 -583 171
-790 69 -219 137 -402 221 -590 299 -669 738 -1250 1308 -1734 96 -81 371
-280 481 -348 385 -239 786 -414 1189 -522 111 -29 287 -70 328 -76 12 -2 83
-12 157 -23 155 -24 205 -29 350 -39 223 -15 590 -5 785 21 28 4 64 8 80 10
30 4 199 33 243 41 12 3 34 7 50 10 15 3 55 13 90 21 35 9 68 17 75 18 71 15
340 97 412 126 11 4 70 27 130 51 152 58 469 213 610 298 849 510 1523 1287
1919 2211 73 170 171 436 191 515 1 6 5 17 8 25 19 48 111 428 123 508 3 20 7
43 9 50 6 15 25 131 31 182 2 19 6 49 9 65 2 17 7 59 11 95 3 36 7 75 9 88 25
155 25 812 1 962 -3 14 -7 56 -11 93 -3 37 -8 76 -10 85 -1 9 -6 44 -10 77 -8
70 -41 262 -55 320 -5 22 -18 81 -30 130 -102 449 -280 906 -516 1323 -118
208 -337 529 -463 678 -167 197 -303 340 -456 479 -48 44 -95 87 -105 96 -105
97 -373 295 -556 411 -400 252 -891 459 -1312 553 -151 34 -263 55 -367 70
-23 3 -50 7 -60 9 -11 2 -58 7 -105 11 -47 4 -94 9 -105 12 -22 5 -571 13
-577 9z"/>
</g>
</svg>
